2.2Hz3min_grf.mot
version=1
nRows=10
nColumns 19
inDegrees=yes
endheader
time	1_ground_force_vx	1_ground_force_vy	1_ground_force_vz	1_ground_force_px	1_ground_force_py	1_ground_force_pz	1_ground_torque_x	1_ground_torque_y	1_ground_torque_z	2_ground_force_vx	2_ground_force_vy	2_ground_force_vz	2_ground_force_px	2_ground_force_py	2_ground_force_pz	2_ground_torque_x	2_ground_torque_y	2_ground_torque_z
            2.495000	            0.408792	            2.709766	           -1.319251	           -0.233013	            0.005581	           -0.255695	           -0.414670	            0.277929	           -0.111869	           -4.051892	           -2.712798	           33.639984	           -0.232311	            0.006130	           -0.833667	            1.847723	           -7.137644	           -0.591780
            2.495500	            0.684581	            3.068975	           -0.997396	           -0.233013	            0.005581	           -0.255695	           -0.447277	            0.231763	           -0.081473	           -3.909267	           -3.265405	           33.825666	           -0.232311	            0.006130	           -0.833667	            1.791340	           -7.119278	           -0.497437
            2.496000	            0.317771	            3.429435	           -0.994940	           -0.233013	            0.005581	           -0.255695	           -0.410005	            0.240845	           -0.097177	           -3.529980	           -4.551751	           33.445482	           -0.232311	            0.006130	           -0.833667	            1.735095	           -7.147907	           -0.478664
            2.496500	            0.272012	            2.348029	           -1.045320	           -0.233013	            0.005581	           -0.255695	           -0.538916	            0.305743	           -0.154889	           -3.486597	           -3.629668	           33.120251	           -0.232311	            0.006130	           -0.833667	            1.716241	           -7.129069	           -0.478589
            2.497000	            0.592553	            3.069547	           -1.134737	           -0.233013	            0.005581	           -0.255695	           -0.404222	            0.333966	           -0.216637	           -3.300485	           -3.261030	           33.215341	           -0.232311	            0.006130	           -0.833667	            1.716259	           -7.138388	           -0.516323
            2.497500	            0.363713	            2.888647	           -0.997373	           -0.233013	            0.005581	           -0.255695	           -0.541207	            0.296543	           -0.151033	           -3.155948	           -4.365412	           33.211339	           -0.232311	            0.006130	           -0.833667	            1.791333	           -7.128394	           -0.591722
            2.498000	            0.410191	            2.527141	           -0.769753	           -0.233013	            0.005581	           -0.255695	           -0.550790	            0.278164	           -0.167918	           -3.295936	           -4.549231	           32.976102	           -0.232311	            0.006130	           -0.833667	            1.697135	           -7.062295	           -0.666847
            2.498500	            0.272841	            2.166387	           -0.725102	           -0.233013	            0.005581	           -0.255695	           -0.458698	            0.185767	           -0.193192	           -3.252409	           -3.628320	           32.979367	           -0.232311	            0.006130	           -0.833667	            1.753533	           -7.071612	           -0.648054
            2.499000	           -0.047685	            1.985469	           -0.587511	           -0.233013	            0.005581	           -0.255695	           -0.445476	            0.185224	           -0.112914	           -3.105254	           -5.468961	           32.878880	           -0.232311	            0.006130	           -0.833667	            1.697185	           -7.071883	           -0.629180
            2.499500	            0.273150	            2.346063	           -0.586761	           -0.233013	            0.005581	           -0.255695	           -0.501997	            0.222334	           -0.098944	           -2.687757	           -4.361210	           32.507219	           -0.232311	            0.006130	           -0.833667	            1.734740	           -7.080797	           -0.742331
